<?xml version="1.0" encoding="utf-8"?>

<!-- Uploaded to: SVG Repo, www.svgrepo.com, Generator: SVG Repo Mixer Tools -->
<svg version="1.1" id="Icons" xmlns="http://www.w3.org/2000/svg" xmlns:xlink="http://www.w3.org/1999/xlink" 
	 viewBox="0 0 32 32" xml:space="preserve">
<style type="text/css">
	.st0{fill:none;stroke:#000000;stroke-width:2;stroke-linecap:round;stroke-linejoin:round;stroke-miterlimit:10;}
</style>
<path class="st0" d="M23.5,11h-15C7.7,11,7,10.3,7,9.5v0C7,8.7,7.7,8,8.5,8h15C24.3,8,25,8.7,25,9.5v0C25,10.3,24.3,11,23.5,11z"/>
<path class="st0" d="M13,8h-3L8.8,4.9C8.4,4,9.1,3,10.1,3h0c0.6,0,1.1,0.3,1.3,0.9L13,8z"/>
<path class="st0" d="M24.1,25c1.8-1.7,2.9-4.1,2.9-7c0-2.7-0.9-5.1-2.5-7h-17C5.9,12.9,5,15.3,5,18c0,2.9,1.1,5.2,2.9,7L7,25.9
	c-0.6,0.6-0.6,1.5,0,2.1c0.6,0.6,1.5,0.6,2.1,0l1.3-1.3C12,27.5,14,28,16,28c2,0,4-0.5,5.6-1.3l1.3,1.3c0.6,0.6,1.5,0.6,2.1,0
	c0.6-0.6,0.6-1.5,0-2.1L24.1,25z"/>
</svg>