<svg width="100" height="100" viewBox="0 0 100 100" fill="none" xmlns="http://www.w3.org/2000/svg">
<path d="M32.7932 98.1271C32.3628 98.0917 31.946 97.8927 31.6446 97.5374C31.0419 96.8278 31.1294 95.7632 31.8401 95.1605L43.1214 85.5938L25.8694 65.8767L12.7483 77.0036C12.0376 77.6063 10.9741 77.5188 10.3714 76.8081C9.76866 76.0985 9.8563 75.0328 10.5669 74.4313L24.9541 62.2307C25.6564 61.6341 26.7071 61.7126 27.3135 62.4055L46.7881 84.6611C47.0861 85.0015 47.2345 85.447 47.2009 85.8966C47.1673 86.3463 46.9546 86.7654 46.6101 87.0575L34.0226 97.7329C33.6672 98.0343 33.2235 98.1625 32.7932 98.1271Z" fill="black"/>
<path d="M42.27 83.7089C41.8397 83.6735 41.4228 83.4745 41.1215 83.1192C40.5187 82.4096 40.6064 81.3439 41.317 80.7423L54.7219 69.3748C55.0627 69.0858 55.5053 68.944 55.9513 68.9806L55.9536 68.9808L58.8702 69.2241L69.6171 60.12C70.3278 59.5173 71.3924 59.6049 71.995 60.3167C72.5965 61.0273 72.509 62.0919 71.7984 62.6934L60.5169 72.2488C60.1749 72.5377 59.7334 72.6797 59.2874 72.643L59.2852 72.6428L56.3685 72.3995L43.4984 83.3135C43.1441 83.6161 42.7003 83.7443 42.27 83.7089Z" fill="black"/>
<path d="M29.5717 68.7347C29.1414 68.6993 28.7245 68.5003 28.4232 68.145C27.8204 67.4354 27.908 66.3708 28.6186 65.7681L42.6421 53.875L44.3181 36.871C44.3618 36.4357 44.5721 36.0333 44.9056 35.7504L48.3012 32.873C49.0119 32.2703 50.0753 32.3578 50.678 33.0685C51.2807 33.7792 51.1931 34.8438 50.4825 35.4453L47.6107 37.8807L45.9347 54.8847C45.891 55.32 45.6808 55.7224 45.3472 56.0052L30.8022 68.3406C30.4458 68.6419 30.002 68.7701 29.5717 68.7347Z" fill="black"/>
<path d="M51.7918 41.9566C51.3614 41.9212 50.9457 41.7223 50.6443 41.368C50.0415 40.6585 50.1268 39.5937 50.8376 38.9899L56.9939 33.7672C62.1955 29.3562 62.194 29.3605 63.3289 30.1297L62.3848 31.5266L63.2665 32.9597C63.1779 33.0212 62.5623 33.4693 59.1762 36.3407L53.0224 41.5614C52.6659 41.8626 52.2221 41.9919 51.7918 41.9566Z" fill="black"/>
<path d="M51.5771 42.1386C51.1468 42.1032 50.7299 41.9042 50.4286 41.5489C49.8258 40.8393 49.9134 39.7747 50.624 39.1721L61.2336 30.1729C62.8757 28.7815 66.6825 26.9803 69.3327 30.1079C70.9505 32.0145 71.0209 33.628 70.795 34.6462C70.5305 35.8463 69.7889 36.5231 69.6433 36.6465L67.462 34.0742C67.6204 33.8898 67.5852 33.2619 66.7604 32.2893C65.6382 30.9672 63.6341 32.5646 63.4077 32.7514L52.8054 41.7444C52.4513 42.0447 52.0074 42.174 51.5771 42.1386Z" fill="black"/>
<path d="M70.1224 63.4571C69.6921 63.4217 69.2752 63.2227 68.9739 62.8674C68.3711 62.1578 68.4586 61.0932 69.1693 60.4905L79.5073 51.7217C79.7223 51.5352 81.6266 49.8213 80.5035 48.498C79.9471 47.8419 79.4046 47.4836 79.0197 47.4994C79.0004 47.5 78.8572 47.5131 78.8572 47.5131C78.1466 48.1146 77.0831 48.0272 76.4804 47.3176C75.8776 46.608 75.9653 45.5423 76.6759 44.9397C76.8215 44.8162 77.6103 44.1963 78.8376 44.1303C79.8803 44.0716 81.4603 44.4091 83.0749 46.3143C84.4706 47.959 84.6301 49.9837 83.5233 52.0148C82.8124 53.3192 81.8004 54.1972 81.6876 54.2928L71.3498 63.0605C70.9965 63.3643 70.5527 63.4925 70.1224 63.4571Z" fill="black"/>
<path d="M78.7779 47.4207L76.599 44.8463C76.7574 44.6619 76.7232 44.0352 75.8983 43.0637C74.8483 41.8254 74.2558 42.0745 74.252 42.0799C73.5414 42.6814 72.4779 42.594 71.8751 41.8844C71.2723 41.1748 71.36 40.1091 72.0707 39.5064C72.9181 38.7909 75.7187 37.6347 78.4706 40.8823C80.0884 42.79 80.1588 44.4035 79.9317 45.4216C79.6662 46.6205 78.9234 47.2973 78.7779 47.4207Z" fill="black"/>
<path d="M74.252 42.0801L72.0708 39.5066C72.2292 39.3222 72.1939 38.6954 71.3691 37.7228C70.8127 37.0666 70.2807 36.7036 69.884 36.7251C69.8648 36.7258 69.7216 36.7389 69.7216 36.7389C69.0109 37.3415 67.9474 37.2541 67.3447 36.5434C66.742 35.8338 66.8296 34.7681 67.5402 34.1666C67.6858 34.0431 68.4746 33.4232 69.7019 33.3572C70.75 33.3012 72.3235 33.6348 73.9402 35.5424C75.558 37.449 75.6284 39.0625 75.4026 40.0796C75.1381 41.2797 74.3976 41.9566 74.252 42.0801Z" fill="black"/>
<path d="M54.5592 40.2539C54.2039 40.5553 53.7601 40.6835 53.3298 40.6481C52.8995 40.6127 52.4826 40.4137 52.1813 40.0584L40.535 26.3248C39.9322 25.6152 40.0198 24.5507 40.7305 23.948L45.8557 19.6017L37.8168 4.33943C37.4401 3.62476 37.6242 2.74411 38.2525 2.23845C38.8819 1.73176 39.7811 1.74591 40.3983 2.26601L59.1389 18.123C59.5165 18.4429 59.735 18.9133 59.7359 19.4097C59.7358 19.905 59.5176 20.3767 59.1393 20.6976L54.2698 24.828L60.9096 32.6577C61.5123 33.3673 61.4265 34.4351 60.7161 35.0369L54.5592 40.2539Z" fill="black"/>
<path d="M76.9086 54.1287C77.6193 53.5261 78.6827 53.6135 79.2854 54.3242L87.1182 63.5597C87.4072 63.9005 87.5491 64.3431 87.5124 64.7891C87.4757 65.2351 87.2635 65.6475 86.9227 65.9376L81.7963 70.2838L89.8348 85.5506C90.2116 86.2652 90.0274 87.1459 89.3992 87.6515C89.0501 87.932 88.6215 88.0535 88.2035 88.0192C87.8617 87.991 87.5295 87.8599 87.2521 87.6261L68.5106 71.7657C68.133 71.4458 67.9135 70.9742 67.9136 70.4789C67.9137 69.9837 68.1319 69.512 68.5103 69.1911L73.3809 65.0597L70.5568 61.7283C69.9542 61.0176 70.0417 59.953 70.7523 59.3514L76.9086 54.1287Z" fill="black"/>
<path d="M18.5974 77.8225C18.167 77.7871 17.7502 77.5881 17.4488 77.2328C16.8461 76.5232 16.9336 75.4586 17.6443 74.8559L21.4973 71.5885C22.208 70.9858 23.2715 71.0733 23.8742 71.784C24.4769 72.4936 24.3894 73.5581 23.6787 74.1608L19.8257 77.4282C19.4714 77.7297 19.0277 77.8579 18.5974 77.8225Z" fill="black"/>
</svg>
