<?xml version="1.0" ?><!-- Uploaded to: SVG Repo, www.svgrepo.com, Generator: SVG Repo Mixer Tools -->
<svg fill="#000000" width="800px" height="800px" viewBox="0 0 64 64" data-name="Layer 1" id="Layer_1" xmlns="http://www.w3.org/2000/svg"><title/><path d="M33,2A23.99656,23.99656,0,0,0,9,25.9931L5,38h8V49H27V62H57V25.9931A23.99656,23.99656,0,0,0,33,2ZM29,7l5,4,5-4v9l-4.5,3.6V27h-1V19.6L29,16Zm-.59863,13.28613,1.39941,1.42774a6,6,0,1,0,8.39844,0l1.39941-1.42774a8,8,0,1,1-11.19726,0ZM34,37a11,11,0,0,0,8.19922-18.333l1.49023-1.334a13,13,0,1,1-19.3789,0l1.49023,1.334A11,11,0,0,0,34,37Zm0,7A18.00114,18.00114,0,0,1,23.78613,11.17676l1.13575,1.64648a16.0004,16.0004,0,1,0,18.48925.23633l1.17774-1.61719A18.0011,18.0011,0,0,1,34,44Z"/></svg>